#!OML:ASF E:\motion texture\Top Level 1\Subject 1\Session 1\male.ASF
:FULLY-SPECIFIED
:DEGREES
615
root -39.7716 17.8698 -1.07423 793.774 -80.0065 -784.726
lowerback 1.94627 1.02537 3.21437
upperback 1.99264 1.38717 -0.959338
thorax 1.05553 0.732192 -2.79981
lowerneck -6.29893 -15.1549 -17.6994
upperneck 4.4879 -21.0854 21.8662
head 6.74691 -10.0146 7.48072
rclavicle -5.96354e-015 -3.18055e-014
rhumerus 18.6409 68.0143 -51.7687
rradius 74.3994
rwrist 33.2015
rhand -37.4128 -22.713
rfingers 7.12502
rthumb -10.4729 -412.432
lclavicle -5.96354e-015 -3.18055e-014
lhumerus -28.5755 -14.5054 91.9004
lradius 75.1237
lwrist 25.5084
lhand -4.23964 42.0892
lfingers 7.12502
lthumb 21.5238 70.9133
rfemur -24.5062 -3.53988 36.2919
rtibia 25.2165
rfoot -6.42059 -14.0568
rtoes 22.6336
lfemur -25.7538 -4.7422 -3.31667
ltibia 56.3144
lfoot -4.21897 -10.5077
ltoes -15.0378
616
root -39.9139 17.8834 -1.07571 794.575 -79.8934 -785.474
lowerback 1.94047 1.02588 3.34758
upperback 1.98141 1.38935 -0.933548
thorax 1.05027 0.734608 -2.84815
lowerneck -6.19135 -15.2356 -17.7642
upperneck 4.32156 -21.2122 22.0554
head 6.73571 -10.0842 7.53431
rclavicle 3.1408e-014 2.06736e-014
rhumerus 17.9595 67.6203 -50.9803
rradius 74.7753
rwrist 33.7691
rhand -38.0283 -22.6136
rfingers 7.12502
rthumb -11.0666 -412.302
lclavicle 3.1408e-014 2.06736e-014
lhumerus -29.2906 -13.7286 91.6425
lradius 74.3418
lwrist 24.4436
lhand -4.17617 41.7457
lfingers 7.12502
lthumb 21.5848 70.5628
rfemur -23.9057 -3.44712 36.4726
rtibia 24.9947
rfoot -6.68439 -14.0208
rtoes 22.146
lfemur -26.4509 -4.68205 -3.10127
ltibia 56.1269
lfoot -4.59593 -9.92174
ltoes -15.1497
617
root -40.0552 17.8967 -1.07591 795.314 -79.7813 -786.158
lowerback 1.92972 1.01891 3.48559
upperback 1.96439 1.38163 -0.91098
thorax 1.0413 0.732026 -2.90241
lowerneck -6.09088 -15.3083 -17.8231
upperneck 4.17386 -21.3279 22.2279
head 6.7267 -10.1481 7.58312
rclavicle -2.50469e-014 -9.54166e-015
rhumerus 17.2828 67.0519 -50.1519
rradius 75.1778
rwrist 34.3058
rhand -38.6815 -22.562
rfingers 7.12502
rthumb -11.6965 -412.215
lclavicle -2.50469e-014 -9.54166e-015
lhumerus -29.9547 -12.9142 91.3421
lradius 73.5436
lwrist 23.3783
lhand -4.15797 41.3935
lfingers 7.12502
lthumb 21.6023 70.2086
rfemur -23.3041 -3.35824 36.6399
rtibia 24.7612
rfoot -6.93273 -13.9907
rtoes 21.6506
lfemur -27.1216 -4.62188 -2.89943
ltibia 55.8296
lfoot -4.99191 -9.29524
ltoes -15.2649
618
root -40.1954 17.9097 -1.07496 796.008 -79.6752 -786.798
lowerback 1.92144 1.0055 3.62239
upperback 1.93857 1.36566 -0.891335
thorax 1.02126 0.725 -2.95911
lowerneck -5.99265 -15.3714 -17.8809
upperneck 4.04296 -21.4309 22.3877
head 6.71914 -10.2056 7.62996
rclavicle 7.95139e-016 2.54444e-014
rhumerus 16.6234 66.3116 -49.2754
rradius 75.5944
rwrist 34.8117
rhand -39.3595 -22.6173
rfingers 7.12502
rthumb -12.3503 -412.233
lclavicle 7.95139e-016 2.54444e-014
lhumerus -30.5763 -12.0635 91.0002
lradius 72.7308
lwrist 22.3147
lhand -4.18683 41.0413
lfingers 7.12502
lthumb 21.5745 69.8595
rfemur -22.7011 -3.26683 36.7901
rtibia 24.5191
rfoot -7.16735 -13.9691
rtoes 21.1473
lfemur -27.7623 -4.55706 -2.71407
ltibia 55.4236
lfoot -5.39836 -8.63054
ltoes -15.3776
619
root -40.335 17.9224 -1.07276 796.636 -79.572 -787.371
lowerback 1.90594 0.984831 3.76199
upperback 1.90752 1.33997 -0.873996
thorax 0.99918 0.713034 -3.01962
lowerneck -5.90097 -15.4283 -17.9312
upperneck 3.93099 -21.525 22.5268
head 6.71327 -10.2583 7.67022
rclavicle 5.56597e-015 -1.90833e-014
rhumerus 16.0074 65.3931 -48.3316
rradius 76.0151
rwrist 35.258
rhand -40.0597 -22.8057
rfingers 7.12502
rthumb -13.0253 -412.379
lclavicle 5.56597e-015 -1.90833e-014
lhumerus -31.1512 -11.182 90.6142
lradius 71.8982
lwrist 21.2538
lhand -4.25531 40.6748
lfingers 7.12502
lthumb 21.5088 69.5006
rfemur -22.0972 -3.18234 36.9259
rtibia 24.2681
rfoot -7.38903 -13.9515
rtoes 20.6335
lfemur -28.3727 -4.49286 -2.54356
ltibia 54.9105
lfoot -5.80536 -7.93374
ltoes -15.4968
620
root -40.4738 17.9348 -1.06949 797.219 -79.4722 -787.9
lowerback 1.8862 0.958224 3.903
upperback 1.87013 1.30644 -0.858348
thorax 0.972257 0.696951 -3.08262
lowerneck -5.81571 -15.4777 -17.9762
upperneck 3.83833 -21.6084 22.6471
head 6.70923 -10.3053 7.70523
rclavicle 2.38542e-015 1.27222e-014
rhumerus 15.4364 64.2898 -47.3311
rradius 76.4233
rwrist 35.6211
rhand -40.7724 -23.1283
rfingers 7.12502
rthumb -13.7123 -412.657
lclavicle 2.38542e-015 1.27222e-014
lhumerus -31.6845 -10.2736 90.1838
lradius 71.0464
lwrist 20.2019
lhand -4.36341 40.2969
lfingers 7.12502
lthumb 21.405 69.1345
rfemur -21.4937 -3.09572 37.0487
rtibia 24.0115
rfoot -7.59802 -13.9418
rtoes 20.1094
lfemur -28.9511 -4.42445 -2.38449
ltibia 54.291
lfoot -6.20258 -7.21143
ltoes -15.6117
621
root -40.6119 17.9467 -1.06523 797.765 -79.3761 -788.388
lowerback 1.86133 0.925258 4.0449
upperback 1.8252 1.26448 -0.843477
thorax 0.939642 0.676394 -3.14686
lowerneck -5.73562 -15.5196 -18.0194
upperneck 3.7634 -21.6814 22.7525
head 6.70724 -10.3468 7.73677
rclavicle 2.26615e-014 -1.11319e-014
rhumerus 14.926 63.0034 -46.2692
rradius 76.8026
rwrist 35.8778
rhand -41.4845 -23.5942
rfingers 7.12502
rthumb -14.3985 -413.075
lclavicle 2.26615e-014 -1.11319e-014
lhumerus -32.1807 -9.34157 89.7085
lradius 70.1774
lwrist 19.1648
lhand -4.50799 39.9184
lfingers 7.12502
lthumb 21.2661 68.7717
rfemur -20.896 -3.00357 37.159
rtibia 23.7536
rfoot -7.79442 -13.9415
rtoes 19.5728
lfemur -29.5005 -4.35109 -2.23532
ltibia 53.5669
lfoot -6.58135 -6.47057
ltoes -15.7113
622
root -40.7493 17.9584 -1.05998 798.277 -79.2835 -788.845
lowerback 1.83523 0.887506 4.18834
upperback 1.7744 1.21627 -0.829412
thorax 0.900989 0.652442 -3.2128
lowerneck -5.66016 -15.5553 -18.055
upperneck 3.70548 -21.7455 22.837
head 6.70573 -10.3836 7.7619
rclavicle -1.07344e-014 -2.38542e-014
rhumerus 14.4851 61.5338 -45.1471
rradius 77.1368
rwrist 35.9981
rhand -42.1981 -24.2205
rfingers 7.12502
rthumb -15.086 -413.651
lclavicle -1.07344e-014 -2.38542e-014
lhumerus -32.6385 -8.38915 89.1881
lradius 69.2806
lwrist 18.1389
lhand -4.68503 39.5183
lfingers 7.12502
lthumb 21.096 68.3907
rfemur -20.2992 -2.9078 37.2581
rtibia 23.4967
rfoot -7.98359 -13.9488
rtoes 19.0398
lfemur -30.0106 -4.27432 -2.09566
ltibia 52.7356
lfoot -6.93821 -5.72062
ltoes -15.8406
623
root -40.8862 17.9696 -1.05376 798.756 -79.1953 -789.271
lowerback 1.80514 0.845248 4.33317
upperback 1.71806 1.16207 -0.816232
thorax 0.858164 0.625242 -3.28039
lowerneck -5.59014 -15.5847 -18.0851
upperneck 3.6642 -21.8004 22.9033
head 6.70522 -10.4154 7.78177
rclavicle 9.93923e-015 -3.49861e-014
rhumerus 14.113 59.8763 -43.9817
rradius 77.4026
rwrist 35.9669
rhand -42.9021 -24.9969
rfingers 7.12502
rthumb -15.7641 -414.375
lclavicle 9.93923e-015 -3.49861e-014
lhumerus -33.0629 -7.42224 88.6236
lradius 68.3594
lwrist 17.1324
lhand -4.89201 39.112
lfingers 7.12502
lthumb 20.8972 68.0065
rfemur -19.7053 -2.80913 37.3453
rtibia 23.2437
rfoot -8.16329 -13.9612
rtoes 18.4898
lfemur -30.4809 -4.19534 -1.96567
ltibia 51.7964
lfoot -7.25822 -4.97006
ltoes -15.959
624
root -41.0227 17.9804 -1.04658 799.206 -79.1107 -789.668
lowerback 1.76994 0.799089 4.48071
upperback 1.6564 1.10262 -0.803939
thorax 0.812074 0.595185 -3.35036
lowerneck -5.52241 -15.6078 -18.1102
upperneck 3.6363 -21.8463 22.9535
head 6.70452 -10.4425 7.79737
rclavicle 0 -1.74931e-014
rhumerus 13.8138 58.0334 -42.7824
rradius 77.5823
rwrist 35.7655
rhand -43.5789 -25.936
rfingers 7.12502
rthumb -16.4158 -415.261
lclavicle 0 -1.74931e-014
lhumerus -33.455 -6.44425 88.0152
lradius 67.4099
lwrist 16.142
lhand -5.12443 38.6972
lfingers 7.12502
lthumb 20.6739 67.6161
rfemur -19.1171 -2.70734 37.422
rtibia 22.9982
rfoot -8.33596 -13.9792
rtoes 17.934
lfemur -30.9158 -4.11297 -1.84436
ltibia 50.7613
lfoot -7.53948 -4.22448
ltoes -16.0789
625
root -41.1589 17.9906 -1.03852 799.63 -79.0298 -790.04
lowerback 1.72998 0.749597 4.63016
upperback 1.58945 1.03867 -0.791807
thorax 0.76253 0.562596 -3.42152
lowerneck -5.45945 -15.6259 -18.1298
upperneck 3.62363 -21.8849 22.986
head 6.70467 -10.4657 7.80758
rclavicle -2.5842e-014 3.97569e-014
rhumerus 13.5831 56.0032 -41.5692
rradius 77.6535
rwrist 35.3866
rhand -44.217 -27.0215
rfingers 7.12502
rthumb -17.0301 -416.295
lclavicle -2.5842e-014 3.97569e-014
lhumerus -33.818 -5.45845 87.3652
lradius 66.4302
lwrist 15.1677
lhand -5.38346 38.2758
lfingers 7.12502
lthumb 20.4249 67.2216
rfemur -18.5356 -2.60201 37.4888
rtibia 22.763
rfoot -8.50177 -14.002
rtoes 17.364
lfemur -31.313 -4.02912 -1.73048
ltibia 49.6308
lfoot -7.77861 -3.49289
ltoes -16.1775
626
root -41.2948 18.0003 -1.02962 800.033 -78.9524 -790.393
lowerback 1.68519 0.69742 4.78147
upperback 1.51782 0.971016 -0.77953
thorax 0.710238 0.527882 -3.49353
lowerneck -5.40157 -15.6397 -18.1441
upperneck 3.62533 -21.9171 23.002
head 6.7058 -10.4851 7.81259
rclavicle -1.59028e-015 -3.97569e-014
rhumerus 13.4228 53.7897 -40.3578
rradius 77.5948
rwrist 34.822
rhand -44.754 -28.2942
rfingers 7.12502
rthumb -17.5469 -417.522
lclavicle -1.59028e-015 -3.97569e-014
lhumerus -34.153 -4.46741 86.6752
lradius 65.4178
lwrist 14.2085
lhand -5.66177 37.8464
lfingers 7.12502
lthumb 20.1575 66.8206
rfemur -17.9621 -2.49269 37.5467
rtibia 22.5416
rfoot -8.66248 -14.029
rtoes 16.7863
lfemur -31.6711 -3.94451 -1.62307
ltibia 48.4092
lfoot -7.97968 -2.78163
ltoes -16.2691
627
root -41.4305 18.0093 -1.01986 800.415 -78.8779 -790.724
lowerback 1.63537 0.643053 4.93545
upperback 1.44128 0.900306 -0.766791
thorax 0.655105 0.491342 -3.56651
lowerneck -5.34275 -15.6482 -18.1555
upperneck 3.63582 -21.9418 23.0059
head 6.70583 -10.501 7.81489
rclavicle 1.31198e-014 -1.27222e-014
rhumerus 13.3207 51.393 -39.1747
rradius 77.381
rwrist 34.0669
rhand -45.2233 -29.7034
rfingers 7.12502
rthumb -17.9986 -418.891
lclavicle 1.31198e-014 -1.27222e-014
lhumerus -34.4618 -3.47586 85.9485
lradius 64.369
lwrist 13.2684
lhand -5.95342 37.4157
lfingers 7.12502
lthumb 19.8771 66.4192
rfemur -17.3977 -2.38279 37.5963
rtibia 22.3359
rfoot -8.8188 -14.0579
rtoes 16.1995
lfemur -31.9938 -3.8596 -1.52192
ltibia 47.1076
lfoot -8.14375 -2.09437
ltoes -16.3543
628
root -41.5661 18.0177 -1.00924 800.777 -78.8079 -791.037
lowerback 1.58062 0.587085 5.09049
upperback 1.36022 0.82727 -0.753673
thorax 0.597495 0.45332 -3.63967
lowerneck -5.28825 -15.6538 -18.162
upperneck 3.65983 -21.9619 22.9931
head 6.70682 -10.5141 7.81167
rclavicle -2.78299e-015 1.59028e-015
rhumerus 13.2758 48.8204 -38.0375
rradius 76.9961
rwrist 33.1156
rhand -45.5769 -31.2708
rfingers 7.12502
rthumb -18.3387 -420.426
lclavicle -2.78299e-015 1.59028e-015
lhumerus -34.746 -2.48714 85.1887
lradius 63.2815
lwrist 12.3521
lhand -6.27238 36.98
lfingers 7.12502
lthumb 19.5705 66.015
rfemur -16.8438 -2.27361 37.6364
rtibia 22.1492
rfoot -8.97152 -14.0868
rtoes 15.6031
lfemur -32.2818 -3.77451 -1.42867
ltibia 45.7354
lfoot -8.27592 -1.43211
ltoes -16.4347
629
root -41.7018 18.0254 -0.997849 801.135 -78.7424 -791.35
lowerback 1.52195 0.531486 5.2458
upperback 1.27662 0.754482 -0.739599
thorax 0.539098 0.415153 -3.71198
lowerneck -5.23303 -15.6558 -18.1661
upperneck 3.69081 -21.9767 22.9693
head 6.70686 -10.5247 7.80572
rclavicle -1.94809e-014 -1.27222e-014
rhumerus 13.2998 46.0848 -36.9507
rradius 76.4298
rwrist 31.9729
rhand -45.7908 -32.9406
rfingers 7.12502
rthumb -18.5444 -422.077
lclavicle -1.94809e-014 -1.27222e-014
lhumerus -35.007 -1.50579 84.3992
lradius 62.1542
lwrist 11.4565
lhand -6.60103 36.5527
lfingers 7.12502
lthumb 19.2545 65.6195
rfemur -16.2954 -2.16158 37.6677
rtibia 21.9817
rfoot -9.12117 -14.1166
rtoes 14.9964
lfemur -32.5304 -3.68824 -1.34237
ltibia 44.3003
lfoot -8.37934 -0.795731
ltoes -16.5315
